<svg xmlns="http://www.w3.org/2000/svg" xmlns:xlink="http://www.w3.org/1999/xlink" width="500" zoomAndPan="magnify" viewBox="0 0 375 374.999991" height="500" preserveAspectRatio="xMidYMid meet" version="1.0"><defs><clipPath id="fbc4439788"><path d="M 199 56 L 270 56 L 270 349.300781 L 199 349.300781 Z M 199 56 " clip-rule="nonzero"/></clipPath><clipPath id="0d37531ca7"><path d="M 269 56 L 340.5 56 L 340.5 349.300781 L 269 349.300781 Z M 269 56 " clip-rule="nonzero"/></clipPath><clipPath id="f4b3da197a"><path d="M 37.5 197 L 109 197 L 109 349.300781 L 37.5 349.300781 Z M 37.5 197 " clip-rule="nonzero"/></clipPath><clipPath id="b4cc02056e"><path d="M 108 197 L 179 197 L 179 349.300781 L 108 349.300781 Z M 108 197 " clip-rule="nonzero"/></clipPath><clipPath id="aa608fa496"><path d="M 199 26.050781 L 340.5 26.050781 L 340.5 87 L 199 87 Z M 199 26.050781 " clip-rule="nonzero"/></clipPath><clipPath id="42479a3089"><path d="M 37.5 167 L 179 167 L 179 229 L 37.5 229 Z M 37.5 167 " clip-rule="nonzero"/></clipPath></defs><g clip-path="url(#fbc4439788)"><path fill="#42a5f5" d="M 269.800781 349.300781 L 199.101562 318.996094 L 199.101562 56.355469 L 269.800781 86.660156 Z M 269.800781 349.300781 " fill-opacity="1" fill-rule="nonzero"/></g><g clip-path="url(#0d37531ca7)"><path fill="#1e88e5" d="M 340.5 318.996094 L 269.800781 349.300781 L 269.800781 86.660156 L 340.5 56.355469 Z M 340.5 318.996094 " fill-opacity="1" fill-rule="nonzero"/></g><g clip-path="url(#f4b3da197a)"><path fill="#42a5f5" d="M 108.199219 349.300781 L 37.5 318.996094 L 37.5 197.777344 L 108.199219 228.082031 Z M 108.199219 349.300781 " fill-opacity="1" fill-rule="nonzero"/></g><g clip-path="url(#b4cc02056e)"><path fill="#1e88e5" d="M 178.898438 318.996094 L 108.199219 349.300781 L 108.199219 228.082031 L 178.898438 197.777344 Z M 178.898438 318.996094 " fill-opacity="1" fill-rule="nonzero"/></g><g clip-path="url(#aa608fa496)"><path fill="#90caf9" d="M 269.800781 26.050781 L 199.101562 56.335938 L 269.800781 86.640625 L 340.5 56.335938 Z M 269.800781 26.050781 " fill-opacity="1" fill-rule="nonzero"/></g><g clip-path="url(#42479a3089)"><path fill="#90caf9" d="M 108.199219 167.472656 L 37.5 197.757812 L 108.199219 228.0625 L 178.898438 197.757812 Z M 108.199219 167.472656 " fill-opacity="1" fill-rule="nonzero"/></g></svg>